<svg width="24" height="25" viewBox="0 0 24 25" fill="none" xmlns="http://www.w3.org/2000/svg">
<g id="AiFillEye">
<path id="Vector" d="M9.28126 12.7393C9.28126 13.4355 9.55783 14.1031 10.0501 14.5954C10.5424 15.0877 11.2101 15.3643 11.9063 15.3643C12.6025 15.3643 13.2701 15.0877 13.7624 14.5954C14.2547 14.1031 14.5313 13.4355 14.5313 12.7393C14.5313 12.0431 14.2547 11.3754 13.7624 10.8831C13.2701 10.3908 12.6025 10.1143 11.9063 10.1143C11.2101 10.1143 10.5424 10.3908 10.0501 10.8831C9.55783 11.3754 9.28126 12.0431 9.28126 12.7393ZM22.0828 12.1346C19.861 7.4541 16.5024 5.09863 12 5.09863C7.49533 5.09863 4.13908 7.4541 1.9172 12.1369C1.82808 12.3256 1.78186 12.5317 1.78186 12.7404C1.78186 12.9491 1.82808 13.1552 1.9172 13.3439C4.13908 18.0244 7.49767 20.3799 12 20.3799C16.5047 20.3799 19.861 18.0244 22.0828 13.3416C22.2633 12.9619 22.2633 12.5213 22.0828 12.1346ZM11.9063 16.8643C9.62814 16.8643 7.78126 15.0174 7.78126 12.7393C7.78126 10.4611 9.62814 8.61426 11.9063 8.61426C14.1844 8.61426 16.0313 10.4611 16.0313 12.7393C16.0313 15.0174 14.1844 16.8643 11.9063 16.8643Z" fill="#718096"/>
</g>
</svg>
