<svg width="153" height="45" viewBox="0 0 153 45" fill="none" xmlns="http://www.w3.org/2000/svg">
<g id="Rectangle 7" filter="url(#filter0_d_119_69)">
<path d="M5 16C5 7.71573 11.7157 1 20 1H133C141.284 1 148 7.71573 148 16V21C148 29.2843 141.284 36 133 36H20C11.7157 36 5 29.2843 5 21V16Z" fill="#EFEFEF"/>
<path d="M20 0.5C11.4396 0.5 4.5 7.43959 4.5 16V21C4.5 29.5604 11.4396 36.5 20 36.5H133C141.56 36.5 148.5 29.5604 148.5 21V16C148.5 7.43959 141.56 0.5 133 0.5H20Z" stroke="black"/>
</g>
<defs>
<filter id="filter0_d_119_69" x="0" y="0" width="153" height="45" filterUnits="userSpaceOnUse" color-interpolation-filters="sRGB">
<feFlood flood-opacity="0" result="BackgroundImageFix"/>
<feColorMatrix in="SourceAlpha" type="matrix" values="0 0 0 0 0 0 0 0 0 0 0 0 0 0 0 0 0 0 127 0" result="hardAlpha"/>
<feOffset dy="4"/>
<feGaussianBlur stdDeviation="2"/>
<feComposite in2="hardAlpha" operator="out"/>
<feColorMatrix type="matrix" values="0 0 0 0 0 0 0 0 0 0 0 0 0 0 0 0 0 0 0.25 0"/>
<feBlend mode="normal" in2="BackgroundImageFix" result="effect1_dropShadow_119_69"/>
<feBlend mode="normal" in="SourceGraphic" in2="effect1_dropShadow_119_69" result="shape"/>
</filter>
</defs>
</svg>
